<mxfile host="Electron" agent="Mozilla/5.0 (Windows NT 10.0; Win64; x64) AppleWebKit/537.36 (KHTML, like Gecko) draw.io/26.2.15 Chrome/134.0.6998.205 Electron/35.2.1 Safari/537.36" version="26.2.15">
  <diagram name="Page-1" id="WsxF800MHR1ex04NqW6G">
    <mxGraphModel dx="2242" dy="1478" grid="1" gridSize="10" guides="1" tooltips="1" connect="1" arrows="1" fold="1" page="0" pageScale="1" pageWidth="2339" pageHeight="3300" math="0" shadow="0">
      <root>
        <mxCell id="0" />
        <mxCell id="1" parent="0" />
        <mxCell id="cvOOH5b3bPWxa79N72EV-46" value="" style="rounded=0;whiteSpace=wrap;html=1;fillStyle=hatch;fillColor=#009900;" parent="1" vertex="1">
          <mxGeometry x="-1070" y="-410" width="940" height="1020" as="geometry" />
        </mxCell>
        <mxCell id="cvOOH5b3bPWxa79N72EV-45" value="" style="rounded=0;whiteSpace=wrap;html=1;fillColor=#3333FF;fillStyle=hatch;" parent="1" vertex="1">
          <mxGeometry x="100" y="-410" width="650" height="1010" as="geometry" />
        </mxCell>
        <mxCell id="cvOOH5b3bPWxa79N72EV-28" style="edgeStyle=none;curved=0;rounded=0;orthogonalLoop=1;jettySize=auto;html=1;exitX=0.5;exitY=0;exitDx=0;exitDy=0;entryX=0;entryY=0.5;entryDx=0;entryDy=0;fontSize=12;startSize=8;endSize=8;endArrow=ERzeroToOne;endFill=0;startArrow=ERoneToMany;startFill=0;" parent="1" source="cvOOH5b3bPWxa79N72EV-1" target="cvOOH5b3bPWxa79N72EV-27" edge="1">
          <mxGeometry relative="1" as="geometry">
            <Array as="points">
              <mxPoint x="-10" y="-175" />
            </Array>
          </mxGeometry>
        </mxCell>
        <mxCell id="cvOOH5b3bPWxa79N72EV-1" value="Users" style="swimlane;childLayout=stackLayout;horizontal=1;startSize=50;horizontalStack=0;rounded=1;fontSize=14;fontStyle=0;strokeWidth=2;resizeParent=0;resizeLast=1;shadow=0;dashed=0;align=center;arcSize=4;whiteSpace=wrap;html=1;" parent="1" vertex="1">
          <mxGeometry x="-90" y="-10" width="160" height="220" as="geometry" />
        </mxCell>
        <mxCell id="cvOOH5b3bPWxa79N72EV-2" value="#id&lt;div&gt;*email: string&lt;/div&gt;&lt;div&gt;+password: string&lt;/div&gt;&lt;div&gt;+fullname: string&lt;/div&gt;&lt;div&gt;+mobile: string&lt;/div&gt;" style="align=left;strokeColor=none;fillColor=none;spacingLeft=4;spacingRight=4;fontSize=12;verticalAlign=top;resizable=0;rotatable=0;part=1;html=1;whiteSpace=wrap;" parent="cvOOH5b3bPWxa79N72EV-1" vertex="1">
          <mxGeometry y="50" width="160" height="170" as="geometry" />
        </mxCell>
        <mxCell id="cvOOH5b3bPWxa79N72EV-4" value="Tours" style="swimlane;childLayout=stackLayout;horizontal=1;startSize=50;horizontalStack=0;rounded=1;fontSize=14;fontStyle=0;strokeWidth=2;resizeParent=0;resizeLast=1;shadow=0;dashed=0;align=center;arcSize=4;whiteSpace=wrap;html=1;" parent="1" vertex="1">
          <mxGeometry x="530" y="-10" width="160" height="220" as="geometry" />
        </mxCell>
        <mxCell id="cvOOH5b3bPWxa79N72EV-5" value="#id&lt;div&gt;+type: ENUM&lt;br&gt;&lt;div&gt;+destination: string&lt;br&gt;&lt;div&gt;+name: string&lt;/div&gt;&lt;div&gt;+description: string&lt;/div&gt;&lt;div&gt;+chat: [&lt;/div&gt;&lt;div&gt;&lt;span style=&quot;white-space: pre;&quot;&gt;&#x9;&lt;/span&gt;senderId: userId&lt;br&gt;&lt;/div&gt;&lt;div&gt;&lt;span style=&quot;white-space: pre;&quot;&gt;&#x9;&lt;/span&gt;text: string&lt;br&gt;&lt;/div&gt;&lt;div&gt;&lt;span style=&quot;white-space: pre;&quot;&gt;&#x9;&lt;/span&gt;sentAt: DateTime&lt;br&gt;&lt;/div&gt;&lt;div&gt;]&lt;/div&gt;&lt;/div&gt;&lt;/div&gt;&lt;div&gt;-otherData: {}&lt;/div&gt;" style="align=left;strokeColor=none;fillColor=none;spacingLeft=4;spacingRight=4;fontSize=12;verticalAlign=top;resizable=0;rotatable=0;part=1;html=1;whiteSpace=wrap;" parent="cvOOH5b3bPWxa79N72EV-4" vertex="1">
          <mxGeometry y="50" width="160" height="170" as="geometry" />
        </mxCell>
        <mxCell id="cvOOH5b3bPWxa79N72EV-6" value="Programs" style="swimlane;childLayout=stackLayout;horizontal=1;startSize=50;horizontalStack=0;rounded=1;fontSize=14;fontStyle=0;strokeWidth=2;resizeParent=0;resizeLast=1;shadow=0;dashed=0;align=center;arcSize=4;whiteSpace=wrap;html=1;" parent="1" vertex="1">
          <mxGeometry x="530" y="340" width="160" height="220" as="geometry" />
        </mxCell>
        <mxCell id="cvOOH5b3bPWxa79N72EV-7" value="#id&lt;div&gt;+name&lt;/div&gt;&lt;div&gt;+type&lt;/div&gt;&lt;div&gt;+description&lt;/div&gt;&lt;div&gt;+schedule&lt;/div&gt;&lt;div&gt;+chat: [&lt;/div&gt;&lt;div&gt;&lt;span style=&quot;white-space: pre;&quot;&gt;&#x9;&lt;/span&gt;&lt;span style=&quot;background-color: transparent; color: light-dark(rgb(0, 0, 0), rgb(255, 255, 255));&quot;&gt;senderId: userId&lt;/span&gt;&lt;br&gt;&lt;/div&gt;&lt;div&gt;&lt;span style=&quot;white-space: pre;&quot;&gt;&#x9;&lt;/span&gt;text: string&lt;br&gt;&lt;/div&gt;&lt;div&gt;&lt;span style=&quot;white-space: pre;&quot;&gt;&#x9;&lt;/span&gt;sentAt: DateTime&lt;/div&gt;&lt;div&gt;]&lt;/div&gt;" style="align=left;strokeColor=none;fillColor=none;spacingLeft=4;spacingRight=4;fontSize=12;verticalAlign=top;resizable=0;rotatable=0;part=1;html=1;whiteSpace=wrap;" parent="cvOOH5b3bPWxa79N72EV-6" vertex="1">
          <mxGeometry y="50" width="160" height="170" as="geometry" />
        </mxCell>
        <mxCell id="cvOOH5b3bPWxa79N72EV-8" value="TravelAttendances" style="swimlane;childLayout=stackLayout;horizontal=1;startSize=50;horizontalStack=0;rounded=1;fontSize=14;fontStyle=0;strokeWidth=2;resizeParent=0;resizeLast=1;shadow=0;dashed=0;align=center;arcSize=4;whiteSpace=wrap;html=1;" parent="1" vertex="1">
          <mxGeometry x="220" y="-10" width="160" height="220" as="geometry" />
        </mxCell>
        <mxCell id="cvOOH5b3bPWxa79N72EV-9" value="#id&lt;div&gt;-rating&lt;br&gt;&lt;div&gt;&amp;amp;userId&lt;/div&gt;&lt;div&gt;&amp;amp;travelId&lt;/div&gt;&lt;/div&gt;" style="align=left;strokeColor=none;fillColor=none;spacingLeft=4;spacingRight=4;fontSize=12;verticalAlign=top;resizable=0;rotatable=0;part=1;html=1;whiteSpace=wrap;" parent="cvOOH5b3bPWxa79N72EV-8" vertex="1">
          <mxGeometry y="50" width="160" height="170" as="geometry" />
        </mxCell>
        <mxCell id="cvOOH5b3bPWxa79N72EV-10" style="edgeStyle=none;curved=1;rounded=0;orthogonalLoop=1;jettySize=auto;html=1;exitX=1;exitY=0.5;exitDx=0;exitDy=0;entryX=0;entryY=0.5;entryDx=0;entryDy=0;fontSize=12;startSize=8;endSize=8;endArrow=ERzeroToOne;startFill=0;startArrow=ERoneToMany;endFill=0;" parent="1" source="cvOOH5b3bPWxa79N72EV-2" target="cvOOH5b3bPWxa79N72EV-9" edge="1">
          <mxGeometry relative="1" as="geometry" />
        </mxCell>
        <mxCell id="cvOOH5b3bPWxa79N72EV-12" style="edgeStyle=none;curved=1;rounded=0;orthogonalLoop=1;jettySize=auto;html=1;exitX=0;exitY=0.5;exitDx=0;exitDy=0;entryX=1;entryY=0.5;entryDx=0;entryDy=0;fontSize=12;startSize=8;endSize=8;endArrow=ERzeroToOne;startFill=0;startArrow=ERoneToMany;endFill=0;" parent="1" source="cvOOH5b3bPWxa79N72EV-5" target="cvOOH5b3bPWxa79N72EV-9" edge="1">
          <mxGeometry relative="1" as="geometry">
            <mxPoint x="370" y="250" as="sourcePoint" />
            <mxPoint x="450" y="250" as="targetPoint" />
          </mxGeometry>
        </mxCell>
        <mxCell id="cvOOH5b3bPWxa79N72EV-13" style="edgeStyle=none;curved=1;rounded=0;orthogonalLoop=1;jettySize=auto;html=1;exitX=0.5;exitY=0;exitDx=0;exitDy=0;entryX=0.5;entryY=1;entryDx=0;entryDy=0;fontSize=12;startSize=8;endSize=8;endArrow=ERone;startFill=0;startArrow=ERzeroToMany;endFill=0;" parent="1" source="cvOOH5b3bPWxa79N72EV-6" target="cvOOH5b3bPWxa79N72EV-4" edge="1">
          <mxGeometry relative="1" as="geometry">
            <mxPoint x="530" y="310" as="sourcePoint" />
            <mxPoint x="420" y="310" as="targetPoint" />
          </mxGeometry>
        </mxCell>
        <mxCell id="cvOOH5b3bPWxa79N72EV-14" value="ProgramAttendances" style="swimlane;childLayout=stackLayout;horizontal=1;startSize=50;horizontalStack=0;rounded=1;fontSize=14;fontStyle=0;strokeWidth=2;resizeParent=0;resizeLast=1;shadow=0;dashed=0;align=center;arcSize=4;whiteSpace=wrap;html=1;" parent="1" vertex="1">
          <mxGeometry x="220" y="340" width="160" height="220" as="geometry" />
        </mxCell>
        <mxCell id="cvOOH5b3bPWxa79N72EV-15" value="#id&lt;div&gt;&amp;amp;userId&lt;/div&gt;&lt;div&gt;&amp;amp;travelId&lt;/div&gt;" style="align=left;strokeColor=none;fillColor=none;spacingLeft=4;spacingRight=4;fontSize=12;verticalAlign=top;resizable=0;rotatable=0;part=1;html=1;whiteSpace=wrap;" parent="cvOOH5b3bPWxa79N72EV-14" vertex="1">
          <mxGeometry y="50" width="160" height="170" as="geometry" />
        </mxCell>
        <mxCell id="cvOOH5b3bPWxa79N72EV-17" style="edgeStyle=none;curved=0;rounded=0;orthogonalLoop=1;jettySize=auto;html=1;exitX=1;exitY=0.75;exitDx=0;exitDy=0;entryX=0;entryY=0.5;entryDx=0;entryDy=0;fontSize=12;startSize=8;endSize=8;endArrow=ERzeroToOne;startFill=0;startArrow=ERzeroToMany;endFill=0;" parent="1" source="cvOOH5b3bPWxa79N72EV-2" target="cvOOH5b3bPWxa79N72EV-15" edge="1">
          <mxGeometry relative="1" as="geometry">
            <mxPoint x="-100" y="420" as="sourcePoint" />
            <mxPoint x="-20" y="420" as="targetPoint" />
            <Array as="points">
              <mxPoint x="130" y="168" />
              <mxPoint x="130" y="475" />
            </Array>
          </mxGeometry>
        </mxCell>
        <mxCell id="cvOOH5b3bPWxa79N72EV-18" style="edgeStyle=none;curved=1;rounded=0;orthogonalLoop=1;jettySize=auto;html=1;exitX=0;exitY=0.5;exitDx=0;exitDy=0;entryX=1;entryY=0.5;entryDx=0;entryDy=0;fontSize=12;startSize=8;endSize=8;endArrow=ERzeroToOne;startFill=0;startArrow=ERzeroToMany;endFill=0;" parent="1" source="cvOOH5b3bPWxa79N72EV-7" target="cvOOH5b3bPWxa79N72EV-15" edge="1">
          <mxGeometry relative="1" as="geometry">
            <mxPoint x="290" y="450" as="sourcePoint" />
            <mxPoint x="370" y="450" as="targetPoint" />
          </mxGeometry>
        </mxCell>
        <mxCell id="cvOOH5b3bPWxa79N72EV-23" value="Organization" style="swimlane;childLayout=stackLayout;horizontal=1;startSize=50;horizontalStack=0;rounded=1;fontSize=14;fontStyle=0;strokeWidth=2;resizeParent=0;resizeLast=1;shadow=0;dashed=0;align=center;arcSize=4;whiteSpace=wrap;html=1;" parent="1" vertex="1">
          <mxGeometry x="530" y="-310" width="160" height="220" as="geometry" />
        </mxCell>
        <mxCell id="cvOOH5b3bPWxa79N72EV-24" value="#id&lt;div&gt;*name&lt;/div&gt;&lt;div&gt;+type&lt;/div&gt;&lt;div&gt;+description&lt;/div&gt;&lt;div&gt;+chat: [&lt;/div&gt;&lt;div&gt;&lt;span style=&quot;white-space: pre;&quot;&gt;&#x9;&lt;/span&gt;senderId: number&lt;br&gt;&lt;/div&gt;&lt;div&gt;&lt;span style=&quot;white-space: pre;&quot;&gt;&#x9;&lt;/span&gt;text: string&lt;br&gt;&lt;/div&gt;&lt;div&gt;&lt;span style=&quot;white-space: pre;&quot;&gt;&#x9;&lt;/span&gt;sentAt: DateTime&lt;br&gt;&lt;/div&gt;&lt;div&gt;]&lt;/div&gt;" style="align=left;strokeColor=none;fillColor=none;spacingLeft=4;spacingRight=4;fontSize=12;verticalAlign=top;resizable=0;rotatable=0;part=1;html=1;whiteSpace=wrap;" parent="cvOOH5b3bPWxa79N72EV-23" vertex="1">
          <mxGeometry y="50" width="160" height="170" as="geometry" />
        </mxCell>
        <mxCell id="cvOOH5b3bPWxa79N72EV-25" style="edgeStyle=none;curved=1;rounded=0;orthogonalLoop=1;jettySize=auto;html=1;exitX=0.5;exitY=1;exitDx=0;exitDy=0;entryX=0.5;entryY=0;entryDx=0;entryDy=0;fontSize=12;startSize=8;endSize=8;endArrow=ERzeroToMany;endFill=0;startArrow=ERone;startFill=0;" parent="1" source="cvOOH5b3bPWxa79N72EV-24" target="cvOOH5b3bPWxa79N72EV-4" edge="1">
          <mxGeometry relative="1" as="geometry" />
        </mxCell>
        <mxCell id="cvOOH5b3bPWxa79N72EV-26" value="OrganizationMembers" style="swimlane;childLayout=stackLayout;horizontal=1;startSize=50;horizontalStack=0;rounded=1;fontSize=14;fontStyle=0;strokeWidth=2;resizeParent=0;resizeLast=1;shadow=0;dashed=0;align=center;arcSize=4;whiteSpace=wrap;html=1;" parent="1" vertex="1">
          <mxGeometry x="220" y="-310" width="160" height="220" as="geometry" />
        </mxCell>
        <mxCell id="cvOOH5b3bPWxa79N72EV-27" value="#id&lt;div&gt;+isOwner&lt;br&gt;&lt;div&gt;+role: ENUM&lt;br&gt;&lt;div&gt;&amp;amp;userId&lt;/div&gt;&lt;div&gt;&amp;amp;organizationId&lt;/div&gt;&lt;/div&gt;&lt;/div&gt;" style="align=left;strokeColor=none;fillColor=none;spacingLeft=4;spacingRight=4;fontSize=12;verticalAlign=top;resizable=0;rotatable=0;part=1;html=1;whiteSpace=wrap;" parent="cvOOH5b3bPWxa79N72EV-26" vertex="1">
          <mxGeometry y="50" width="160" height="170" as="geometry" />
        </mxCell>
        <mxCell id="cvOOH5b3bPWxa79N72EV-29" style="edgeStyle=none;curved=1;rounded=0;orthogonalLoop=1;jettySize=auto;html=1;exitX=1;exitY=0.5;exitDx=0;exitDy=0;entryX=0;entryY=0.5;entryDx=0;entryDy=0;fontSize=12;startSize=8;endSize=8;startArrow=ERone;startFill=0;endArrow=ERoneToMany;endFill=0;" parent="1" source="cvOOH5b3bPWxa79N72EV-27" target="cvOOH5b3bPWxa79N72EV-24" edge="1">
          <mxGeometry relative="1" as="geometry" />
        </mxCell>
        <mxCell id="cvOOH5b3bPWxa79N72EV-43" style="edgeStyle=none;curved=1;rounded=0;orthogonalLoop=1;jettySize=auto;html=1;exitX=0.5;exitY=0;exitDx=0;exitDy=0;entryX=0.5;entryY=1;entryDx=0;entryDy=0;fontSize=12;startSize=8;endSize=8;startArrow=ERone;startFill=0;endArrow=ERoneToMany;endFill=0;" parent="1" source="cvOOH5b3bPWxa79N72EV-30" target="cvOOH5b3bPWxa79N72EV-38" edge="1">
          <mxGeometry relative="1" as="geometry" />
        </mxCell>
        <mxCell id="cvOOH5b3bPWxa79N72EV-30" value="Vlogs" style="swimlane;childLayout=stackLayout;horizontal=1;startSize=50;horizontalStack=0;rounded=1;fontSize=14;fontStyle=0;strokeWidth=2;resizeParent=0;resizeLast=1;shadow=0;dashed=0;align=center;arcSize=4;whiteSpace=wrap;html=1;" parent="1" vertex="1">
          <mxGeometry x="-760" y="-10" width="160" height="220" as="geometry" />
        </mxCell>
        <mxCell id="cvOOH5b3bPWxa79N72EV-31" value="#id&lt;div&gt;+title&lt;/div&gt;&lt;div&gt;-description&lt;/div&gt;&lt;div&gt;-thumbnail&lt;/div&gt;&lt;div&gt;+videoUrl&lt;/div&gt;&lt;div&gt;+createdAt&lt;/div&gt;&lt;div&gt;+updatedAt&lt;br&gt;&lt;div&gt;&amp;amp;userId&lt;/div&gt;&lt;div&gt;&amp;amp;travelId&lt;/div&gt;&lt;div&gt;&lt;br&gt;&lt;/div&gt;&lt;/div&gt;" style="align=left;strokeColor=none;fillColor=none;spacingLeft=4;spacingRight=4;fontSize=12;verticalAlign=top;resizable=0;rotatable=0;part=1;html=1;whiteSpace=wrap;" parent="cvOOH5b3bPWxa79N72EV-30" vertex="1">
          <mxGeometry y="50" width="160" height="170" as="geometry" />
        </mxCell>
        <mxCell id="cvOOH5b3bPWxa79N72EV-32" value="UserVlogs" style="swimlane;childLayout=stackLayout;horizontal=1;startSize=50;horizontalStack=0;rounded=1;fontSize=14;fontStyle=0;strokeWidth=2;resizeParent=0;resizeLast=1;shadow=0;dashed=0;align=center;arcSize=4;whiteSpace=wrap;html=1;" parent="1" vertex="1">
          <mxGeometry x="-420" y="-10" width="160" height="220" as="geometry" />
        </mxCell>
        <mxCell id="cvOOH5b3bPWxa79N72EV-33" value="#id&lt;div&gt;&amp;amp;userId&lt;/div&gt;&lt;div&gt;&amp;amp;vlogId&lt;/div&gt;&lt;div&gt;&amp;amp;travelId&lt;/div&gt;" style="align=left;strokeColor=none;fillColor=none;spacingLeft=4;spacingRight=4;fontSize=12;verticalAlign=top;resizable=0;rotatable=0;part=1;html=1;whiteSpace=wrap;" parent="cvOOH5b3bPWxa79N72EV-32" vertex="1">
          <mxGeometry y="50" width="160" height="170" as="geometry" />
        </mxCell>
        <mxCell id="cvOOH5b3bPWxa79N72EV-34" style="edgeStyle=none;curved=0;rounded=0;orthogonalLoop=1;jettySize=auto;html=1;exitX=0;exitY=0.5;exitDx=0;exitDy=0;entryX=1;entryY=0.5;entryDx=0;entryDy=0;fontSize=12;startSize=8;endSize=8;endArrow=ERzeroToOne;endFill=0;startArrow=ERoneToMany;startFill=0;" parent="1" source="cvOOH5b3bPWxa79N72EV-2" target="cvOOH5b3bPWxa79N72EV-33" edge="1">
          <mxGeometry relative="1" as="geometry">
            <mxPoint x="-180" y="205" as="sourcePoint" />
            <mxPoint x="50" y="40" as="targetPoint" />
            <Array as="points" />
          </mxGeometry>
        </mxCell>
        <mxCell id="cvOOH5b3bPWxa79N72EV-35" style="edgeStyle=none;curved=0;rounded=0;orthogonalLoop=1;jettySize=auto;html=1;fontSize=12;startSize=8;endSize=8;endArrow=ERzeroToOne;endFill=0;startArrow=ERoneToMany;startFill=0;entryX=1;entryY=0.75;entryDx=0;entryDy=0;exitX=1;exitY=0.75;exitDx=0;exitDy=0;" parent="1" source="cvOOH5b3bPWxa79N72EV-31" target="cvOOH5b3bPWxa79N72EV-5" edge="1">
          <mxGeometry relative="1" as="geometry">
            <mxPoint x="550" y="812.5" as="sourcePoint" />
            <mxPoint x="-410" y="260" as="targetPoint" />
            <Array as="points">
              <mxPoint x="-500" y="168" />
              <mxPoint x="-500" y="640" />
              <mxPoint x="790" y="640" />
              <mxPoint x="790" y="168" />
            </Array>
          </mxGeometry>
        </mxCell>
        <mxCell id="cvOOH5b3bPWxa79N72EV-36" style="edgeStyle=none;curved=0;rounded=0;orthogonalLoop=1;jettySize=auto;html=1;exitX=1;exitY=0.5;exitDx=0;exitDy=0;entryX=0;entryY=0.5;entryDx=0;entryDy=0;fontSize=12;startSize=8;endSize=8;endArrow=ERone;endFill=0;startArrow=ERoneToMany;startFill=0;" parent="1" source="cvOOH5b3bPWxa79N72EV-31" target="cvOOH5b3bPWxa79N72EV-33" edge="1">
          <mxGeometry relative="1" as="geometry">
            <mxPoint x="-250" y="350" as="sourcePoint" />
            <mxPoint x="-420" y="350" as="targetPoint" />
            <Array as="points" />
          </mxGeometry>
        </mxCell>
        <mxCell id="cvOOH5b3bPWxa79N72EV-37" value="VlogReactions" style="swimlane;childLayout=stackLayout;horizontal=1;startSize=50;horizontalStack=0;rounded=1;fontSize=14;fontStyle=0;strokeWidth=2;resizeParent=0;resizeLast=1;shadow=0;dashed=0;align=center;arcSize=4;whiteSpace=wrap;html=1;" parent="1" vertex="1">
          <mxGeometry x="-760" y="-310" width="160" height="220" as="geometry" />
        </mxCell>
        <mxCell id="cvOOH5b3bPWxa79N72EV-38" value="#id&lt;div&gt;&amp;amp;userId&lt;/div&gt;&lt;div&gt;&amp;amp;vlogId&lt;/div&gt;" style="align=left;strokeColor=none;fillColor=none;spacingLeft=4;spacingRight=4;fontSize=12;verticalAlign=top;resizable=0;rotatable=0;part=1;html=1;whiteSpace=wrap;" parent="cvOOH5b3bPWxa79N72EV-37" vertex="1">
          <mxGeometry y="50" width="160" height="170" as="geometry" />
        </mxCell>
        <mxCell id="cvOOH5b3bPWxa79N72EV-39" value="UserReactions" style="swimlane;childLayout=stackLayout;horizontal=1;startSize=50;horizontalStack=0;rounded=1;fontSize=14;fontStyle=0;strokeWidth=2;resizeParent=0;resizeLast=1;shadow=0;dashed=0;align=center;arcSize=4;whiteSpace=wrap;html=1;" parent="1" vertex="1">
          <mxGeometry x="-420" y="-310" width="160" height="220" as="geometry" />
        </mxCell>
        <mxCell id="cvOOH5b3bPWxa79N72EV-40" value="#id&lt;div&gt;&amp;amp;userId&lt;/div&gt;&lt;div&gt;&amp;amp;travelId&lt;/div&gt;" style="align=left;strokeColor=none;fillColor=none;spacingLeft=4;spacingRight=4;fontSize=12;verticalAlign=top;resizable=0;rotatable=0;part=1;html=1;whiteSpace=wrap;" parent="cvOOH5b3bPWxa79N72EV-39" vertex="1">
          <mxGeometry y="50" width="160" height="170" as="geometry" />
        </mxCell>
        <mxCell id="cvOOH5b3bPWxa79N72EV-42" style="edgeStyle=none;curved=0;rounded=0;orthogonalLoop=1;jettySize=auto;html=1;exitX=1;exitY=0.5;exitDx=0;exitDy=0;entryX=0.25;entryY=0;entryDx=0;entryDy=0;fontSize=12;startSize=8;endSize=8;startArrow=ERone;startFill=0;endArrow=ERzeroToMany;endFill=0;" parent="1" source="cvOOH5b3bPWxa79N72EV-40" target="cvOOH5b3bPWxa79N72EV-1" edge="1">
          <mxGeometry relative="1" as="geometry">
            <Array as="points">
              <mxPoint x="-50" y="-175" />
            </Array>
          </mxGeometry>
        </mxCell>
        <mxCell id="cvOOH5b3bPWxa79N72EV-44" style="edgeStyle=none;curved=1;rounded=0;orthogonalLoop=1;jettySize=auto;html=1;exitX=0;exitY=0.5;exitDx=0;exitDy=0;entryX=1;entryY=0.5;entryDx=0;entryDy=0;fontSize=12;startSize=8;endSize=8;startArrow=ERone;startFill=0;endArrow=ERoneToMany;endFill=0;" parent="1" source="cvOOH5b3bPWxa79N72EV-40" target="cvOOH5b3bPWxa79N72EV-38" edge="1">
          <mxGeometry relative="1" as="geometry">
            <mxPoint x="-490" y="-60" as="sourcePoint" />
            <mxPoint x="-490" y="-140" as="targetPoint" />
          </mxGeometry>
        </mxCell>
        <mxCell id="cvOOH5b3bPWxa79N72EV-48" value="&lt;font style=&quot;font-size: 30px;&quot;&gt;Android &amp;amp; Web&lt;/font&gt;" style="text;html=1;align=center;verticalAlign=middle;resizable=0;points=[];autosize=1;strokeColor=none;fillColor=none;fontSize=16;" parent="1" vertex="1">
          <mxGeometry x="-710" y="-469" width="220" height="50" as="geometry" />
        </mxCell>
        <mxCell id="cvOOH5b3bPWxa79N72EV-49" value="&lt;font style=&quot;font-size: 30px;&quot;&gt;PWA&lt;/font&gt;" style="text;html=1;align=center;verticalAlign=middle;resizable=0;points=[];autosize=1;strokeColor=none;fillColor=none;fontSize=16;" parent="1" vertex="1">
          <mxGeometry x="380" y="-480" width="90" height="50" as="geometry" />
        </mxCell>
      </root>
    </mxGraphModel>
  </diagram>
</mxfile>
